grf
version=1
nRows=11
nColumns=37
inDegrees=no
endheader
time	ground_force_1_vx	ground_force_1_vy	ground_force_1_vz	ground_force_1_px	ground_force_1_py	ground_force_1_pz	ground_moment_1_mx	ground_moment_1_my	ground_moment_1_mz	ground_force_2_vx	ground_force_2_vy	ground_force_2_vz	ground_force_2_px	ground_force_2_py	ground_force_2_pz	ground_moment_2_mx	ground_moment_2_my	ground_moment_2_mz	ground_force_3_vx	ground_force_3_vy	ground_force_3_vz	ground_force_3_px	ground_force_3_py	ground_force_3_pz	ground_moment_3_mx	ground_moment_3_my	ground_moment_3_mz	ground_force_4_vx	ground_force_4_vy	ground_force_4_vz	ground_force_4_px	ground_force_4_py	ground_force_4_pz	ground_moment_4_mx	ground_moment_4_my	ground_moment_4_mz
      6.96000000	      0.00000000	     -0.00000000	      0.00000000	      0.00000000	      0.00000000	      0.00000000	      0.00000000	      0.00000000	      0.00000000	    -31.25847244	     77.48691559	   -674.34106445	   -322.47075107	  -1074.48631712	      0.00000000	      0.00000000	      0.00000000	   3977.39932373	    -53.12976833	    -86.76797021	   -725.65612793	   -294.14925166	   -695.70856000	      0.00000000	      0.00000000	     -0.00000000	  -5192.83912056	      0.00000000	     -0.00000000	      0.00000000	      0.00000000	      0.00000000	      0.00000000	      0.00000000	      0.00000000	      0.00000000
      6.97000000	      0.00000000	     -0.00000000	      0.00000000	      0.00000000	      0.00000000	      0.00000000	      0.00000000	      0.00000000	      0.00000000	    -25.81237221	     72.64128113	   -652.36126709	   -325.89596032	  -1072.77477644	      0.00000000	      0.00000000	      0.00000000	   3761.45391638	    -45.01781404	    -80.40955722	   -714.71337891	   -299.17693225	   -698.66121902	      0.00000000	      0.00000000	     -0.00000000	  -4962.69742350	      0.00000000	     -0.00000000	      0.00000000	      0.00000000	      0.00000000	      0.00000000	      0.00000000	      0.00000000	      0.00000000
      6.98000000	      0.00000000	     -0.00000000	      0.00000000	      0.00000000	      0.00000000	      0.00000000	      0.00000000	      0.00000000	      0.00000000	    -24.85656357	     67.86137390	   -635.13867188	   -329.06619802	  -1072.30205325	      0.00000000	      0.00000000	      0.00000000	   3594.02136302	    -29.16997638	    -78.04853566	   -712.86706543	   -305.31980454	   -700.35586780	      0.00000000	      0.00000000	     -0.00000000	  -3985.12117252	      0.00000000	     -0.00000000	      0.00000000	      0.00000000	      0.00000000	      0.00000000	      0.00000000	      0.00000000	      0.00000000
      6.99000000	      0.00000000	     -0.00000000	      0.00000000	      0.00000000	      0.00000000	      0.00000000	      0.00000000	      0.00000000	      0.00000000	    -25.54487610	     63.17120361	   -613.50683594	   -332.13129565	  -1070.76269875	      0.00000000	      0.00000000	     -0.00000000	   3506.81052060	    -19.94268715	    -77.67033212	   -700.53875732	   -310.61808797	   -702.33395904	      0.00000000	      0.00000000	     -0.00000000	  -2989.15337318	      0.00000000	     -0.00000000	      0.00000000	      0.00000000	      0.00000000	      0.00000000	      0.00000000	      0.00000000	      0.00000000
      7.00000000	      0.00000000	     -0.00000000	      0.00000000	      0.00000000	      0.00000000	      0.00000000	      0.00000000	      0.00000000	      0.00000000	    -25.04639244	     61.09101105	   -589.97955322	   -335.59694007	  -1069.60057634	      0.00000000	     -0.00000000	      0.00000000	   3428.75035652	    -16.20357025	    -75.07623912	   -685.74487305	   -315.33334867	   -704.21694668	      0.00000000	      0.00000000	     -0.00000000	  -2730.25903155	      0.00000000	     -0.00000000	      0.00000000	      0.00000000	      0.00000000	      0.00000000	      0.00000000	      0.00000000	      0.00000000
      7.01000000	      0.00000000	     -0.00000000	      0.00000000	      0.00000000	      0.00000000	      0.00000000	      0.00000000	      0.00000000	      0.00000000	    -21.41688728	     59.37038803	   -569.48577881	   -338.66909899	  -1070.30776795	      0.00000000	      0.00000000	      0.00000000	   2783.26602441	    -15.87622688	    -70.68778853	   -668.64904785	   -319.64984175	   -706.12777458	      0.00000000	      0.00000000	     -0.00000000	  -2593.22516320	      0.00000000	     -0.00000000	      0.00000000	      0.00000000	      0.00000000	      0.00000000	      0.00000000	      0.00000000	      0.00000000
      7.02000000	      0.00000000	     -0.00000000	      0.00000000	      0.00000000	      0.00000000	      0.00000000	      0.00000000	      0.00000000	      0.00000000	    -16.54504204	     57.67758560	   -541.69628906	   -342.40823368	  -1068.46950858	      0.00000000	      0.00000000	      0.00000000	   2437.12430379	    -15.43244770	    -68.47659930	   -651.42175293	   -324.05814213	   -708.09627806	      0.00000000	     -0.00000000	     -0.00000000	  -2390.97963396	      0.00000000	     -0.00000000	      0.00000000	      0.00000000	      0.00000000	      0.00000000	      0.00000000	      0.00000000	      0.00000000
      7.03000000	      0.00000000	     -0.00000000	      0.00000000	      0.00000000	      0.00000000	      0.00000000	      0.00000000	      0.00000000	      0.00000000	    -11.74845028	     54.43855286	   -516.24084473	   -346.54782912	  -1067.60296450	      0.00000000	      0.00000000	      0.00000000	   1993.85763323	    -12.47751437	    -66.62853132	   -630.95739746	   -328.74322535	   -709.80361701	      0.00000000	      0.00000000	     -0.00000000	  -2034.14550607	      0.00000000	     -0.00000000	      0.00000000	      0.00000000	      0.00000000	      0.00000000	      0.00000000	      0.00000000	      0.00000000
      7.04000000	      0.00000000	     -0.00000000	      0.00000000	      0.00000000	      0.00000000	      0.00000000	      0.00000000	      0.00000000	      0.00000000	     -5.74802637	     48.40536118	   -489.64508057	   -351.13627001	  -1064.68094092	      0.00000000	      0.00000000	      0.00000000	   2088.28954541	     -7.80655476	    -65.04260186	   -609.66143799	   -333.01668599	   -711.30991143	      0.00000000	      0.00000000	     -0.00000000	  -1651.58214680	      0.00000000	     -0.00000000	      0.00000000	      0.00000000	      0.00000000	      0.00000000	      0.00000000	      0.00000000	      0.00000000
      7.05000000	      0.00000000	     -0.00000000	      0.00000000	      0.00000000	      0.00000000	      0.00000000	      0.00000000	      0.00000000	      0.00000000	     -0.77983254	     41.62390137	   -464.23315430	   -356.34723342	  -1063.39741278	      0.00000000	      0.00000000	      0.00000000	   1973.44385966	     -3.55611562	    -62.68150680	   -588.48724365	   -337.63905774	   -713.25169383	      0.00000000	      0.00000000	     -0.00000000	  -1315.16517605	      0.00000000	     -0.00000000	      0.00000000	      0.00000000	      0.00000000	      0.00000000	      0.00000000	      0.00000000	      0.00000000
      7.06000000	      0.00000000	     -0.00000000	      0.00000000	      0.00000000	      0.00000000	      0.00000000	      0.00000000	      0.00000000	      0.00000000	      2.24461246	     36.25754547	   -433.73818970	   -361.43789854	  -1060.02550664	      0.00000000	      0.00000000	      0.00000000	   1858.29159552	     -0.86825943	    -61.41434853	   -566.33972168	   -342.04247513	   -714.91643673	      0.00000000	      0.00000000	     -0.00000000	  -1015.34573293	      0.00000000	     -0.00000000	      0.00000000	      0.00000000	      0.00000000	      0.00000000	      0.00000000	      0.00000000	      0.00000000
